# xmcd CD database file
#
# Track frame offsets:
#	150
#	19341
#	44809
#	65773
#	85047
#	107381
#	127311
#	147736
#	163459
#	173479
#	198505
#
# Disc length: 3016 seconds
#
# Revision: 1
# Processed by: cddbd v1.5.2PL0 Copyright (c) Steve Scherf et al.
# Submitted via: CDex 1.51
#
DISCID=a90bc60b
DTITLE=Terry Garland - The One To Blame
DYEAR=2000
DGENRE=Blues
TTITLE0=Good Time Blues
TTITLE1=The One To Blame
TTITLE2=Stagger Lee
TTITLE3=Phonograph Blues
TTITLE4=Nasty Boogie Woogie
TTITLE5=A Closer Walk With Thee
TTITLE6=Rollin' And Tumblin'
TTITLE7=Goin' Down Slow
TTITLE8=It'll Be Me
TTITLE9=When A Brother Dies
TTITLE10=All Aboard
EXTD=YEAR: 2000
EXTT0=
EXTT1=
EXTT2=
EXTT3=
EXTT4=
EXTT5=
EXTT6=
EXTT7=
EXTT8=
EXTT9=
EXTT10=
PLAYORDER=
